<svg
        xmlns="http://www.w3.org/2000/svg"
        width="60"
        height="60"
        viewBox="0 0 60 60"
        fill="none"
      >
        <g clip-path="url(#clip0_1427_205)">
          <path
            d="M28.75 46.25H6.25C4.59301 46.248 3.00445 45.5889 1.83277 44.4172C0.661102 43.2456 0.00198482 41.657 0 40C0 39.6685 0.131696 39.3505 0.366117 39.1161C0.600537 38.8817 0.918479 38.75 1.25 38.75H28.75V41.25H2.71375C2.97323 41.9806 3.45238 42.6131 4.08548 43.0607C4.71859 43.5083 5.47466 43.7491 6.25 43.75H28.75V46.25Z"
            fill="#FF9C00"
          />
          <path
            d="M5 40H2.5V3.75C2.5 2.75544 2.89509 1.80161 3.59835 1.09835C4.30161 0.395088 5.25544 0 6.25 0L53.75 0C54.7446 0 55.6984 0.395088 56.4016 1.09835C57.1049 1.80161 57.5 2.75544 57.5 3.75V20H55V3.75C55 3.41848 54.8683 3.10054 54.6339 2.86612C54.3995 2.6317 54.0815 2.5 53.75 2.5H6.25C5.91848 2.5 5.60054 2.6317 5.36612 2.86612C5.1317 3.10054 5 3.41848 5 3.75V40Z"
            fill="#FF9C00"
          />
          <path
            d="M56.5525 60H30.9475C30.0335 59.999 29.1572 59.6355 28.5108 58.9892C27.8645 58.3428 27.501 57.4665 27.5 56.5525V28.41C27.5023 27.4962 27.8653 26.6202 28.51 25.9725L34.7225 19.76C35.3702 19.1153 36.2462 18.7523 37.16 18.75H56.5525C57.4665 18.751 58.3428 19.1145 58.9892 19.7608C59.6355 20.4072 59.999 21.2835 60 22.1975V56.5525C59.999 57.4665 59.6355 58.3428 58.9892 58.9892C58.3428 59.6355 57.4665 59.999 56.5525 60ZM37.16 21.25C36.9088 21.2507 36.6681 21.3504 36.49 21.5275L30.2775 27.74C30.1004 27.9181 30.0007 28.1588 30 28.41V56.5525C30.0003 56.8037 30.1003 57.0445 30.2779 57.2221C30.4555 57.3997 30.6963 57.4997 30.9475 57.5H56.5525C56.8037 57.4997 57.0445 57.3997 57.2221 57.2221C57.3997 57.0445 57.4997 56.8037 57.5 56.5525V22.1975C57.4997 21.9463 57.3997 21.7055 57.2221 21.5279C57.0445 21.3503 56.8037 21.2503 56.5525 21.25H37.16Z"
            fill="#FF9C00"
          />
          <path
            d="M37.5 30H28.75V27.5H36.25V20H38.75V28.75C38.75 29.0815 38.6183 29.3995 38.3839 29.6339C38.1495 29.8683 37.8315 30 37.5 30ZM22.5 40H28.75V42.5H22.5V40Z"
            fill="#FF9C00"
          />
          <path
            d="M11.25 40H8.75V7.5C8.75 7.16848 8.8817 6.85054 9.11612 6.61612C9.35054 6.3817 9.66848 6.25 10 6.25H50C50.3315 6.25 50.6495 6.3817 50.8839 6.61612C51.1183 6.85054 51.25 7.16848 51.25 7.5V20H48.75V8.75H11.25V40Z"
            fill="#FF9C00"
          />
          <path
            d="M10 13.75H50V16.25H10V13.75ZM13.75 10H16.25V12.5H13.75V10ZM18.75 10H21.25V12.5H18.75V10ZM23.75 10H26.25V12.5H23.75V10ZM37.8662 47.1338L34.1162 43.3838C33.8819 43.1493 33.7503 42.8315 33.7503 42.5C33.7503 42.1685 33.8819 41.8507 34.1162 41.6162L37.8662 37.8662L39.6338 39.6338L36.7675 42.5L39.6338 45.3662L37.8662 47.1338ZM49.6338 47.1338L47.8662 45.3662L50.7325 42.5L47.8662 39.6338L49.6338 37.8662L53.3838 41.6162C53.6181 41.8507 53.7497 42.1685 53.7497 42.5C53.7497 42.8315 53.6181 43.1493 53.3838 43.3838L49.6338 47.1338ZM40.21 45.5575L45.21 38.0575L47.29 39.445L42.29 46.945L40.21 45.5575ZM33.75 50H38.75V52.5H33.75V50ZM41.25 50H46.25V52.5H41.25V50ZM48.75 50H53.75V52.5H48.75V50ZM33.75 32.5H38.75V35H33.75V32.5ZM41.25 32.5H46.25V35H41.25V32.5ZM48.75 32.5H53.75V35H48.75V32.5ZM41.25 26.25H46.25V28.75H41.25V26.25ZM48.75 26.25H53.75V28.75H48.75V26.25ZM16.25 25H13.75V20C13.75 19.6685 13.8817 19.3505 14.1161 19.1161C14.3505 18.8817 14.6685 18.75 15 18.75H20V21.25H16.25V25ZM13.75 27.5H16.25V30H13.75V27.5Z"
            fill="#FF9C00"
          />
        </g>
        <defs>
          <clipPath id="clip0_1427_205">
            <rect width="60" height="60" fill="white" />
          </clipPath>
        </defs>
      </svg>